<?xml version="1.0" standalone="no"?><!DOCTYPE svg PUBLIC "-//W3C//DTD SVG 1.1//EN" "http://www.w3.org/Graphics/SVG/1.1/DTD/svg11.dtd"><svg t="1499936043060" class="icon" style="" viewBox="0 0 1024 1024" version="1.1" xmlns="http://www.w3.org/2000/svg" p-id="2769" xmlns:xlink="http://www.w3.org/1999/xlink" width="200" height="200"><defs><style type="text/css"></style></defs><path d="M913.6 216v-19.2c0-64-51.2-115.2-115.2-115.2H256c-64 0-115.2 51.2-115.2 115.2v696c0 64 51.2 115.2 115.2 115.2h540.8c64 0 115.2-51.2 115.2-115.2V216z m-136 734.4H275.2c-43.2 0-76.8-35.2-76.8-76.8V216c0-43.2 35.2-76.8 76.8-76.8h502.4c43.2 0 76.8 35.2 76.8 76.8V872c0 43.2-33.6 78.4-76.8 78.4z" fill="#f9f9f9" p-id="2770"></path><path d="M608 118.4H444.8h-1.6c-9.6 0-16-11.2-12.8-20.8 6.4-17.6 25.6-80 40-80h112c14.4 1.6 32 62.4 40 80 3.2 9.6-3.2 20.8-14.4 20.8 1.6 0 1.6 0 0 0zM753.6 425.6c0-1.6 1.6-1.6 3.2-3.2h-1.6l-148.8-28.8c-1.6 0-3.2-1.6-4.8-3.2-20.8-38.4-43.2-78.4-64-116.8l-9.6-19.2c0 1.6-1.6 1.6-1.6 3.2-24 44.8-48 88-72 132.8-1.6 1.6-3.2 3.2-4.8 3.2-43.2 8-88 16-131.2 25.6-6.4 1.6-12.8 3.2-19.2 3.2 1.6 1.6 1.6 1.6 1.6 3.2 33.6 36.8 68.8 73.6 102.4 110.4 1.6 1.6 1.6 3.2 1.6 4.8-1.6 16-3.2 30.4-6.4 46.4-3.2 28.8-8 57.6-11.2 88 0 6.4-1.6 12.8-3.2 19.2 1.6-1.6 3.2-1.6 4.8-3.2l134.4-62.4c1.6-1.6 3.2-1.6 6.4 0l134.4 62.4c1.6 0 3.2 1.6 4.8 1.6V688c-3.2-20.8-4.8-40-8-60.8-3.2-28.8-8-59.2-11.2-88 0-3.2 0-4.8 1.6-6.4 35.2-33.6 68.8-70.4 102.4-107.2z m-192 11.2c4.8-6.4 14.4-6.4 19.2 0 4.8 4.8 6.4 12.8 6.4 19.2 0 6.4-1.6 14.4-6.4 19.2-4.8 6.4-12.8 6.4-19.2 0-8-9.6-8-28.8 0-38.4z m-97.6 1.6c6.4-9.6 17.6-8 22.4 1.6 3.2 4.8 4.8 11.2 4.8 14.4 0 9.6-1.6 16-6.4 20.8-4.8 6.4-14.4 6.4-19.2 0-8-9.6-8-25.6-1.6-36.8z m137.6 67.2c-4.8 24-16 43.2-35.2 57.6-25.6 19.2-62.4 19.2-88 0-20.8-16-32-36.8-35.2-62.4v-3.2c52.8 27.2 105.6 27.2 160 0 0 3.2 0 4.8-1.6 8z" fill="#f9f9f9" p-id="2771"></path></svg>